<mxfile host="app.diagrams.net" agent="Mozilla/5.0 (Windows NT 10.0; Win64; x64) AppleWebKit/537.36 (KHTML, like Gecko) Chrome/132.0.0.0 Safari/537.36 OPR/117.0.0.0" version="26.2.9">
  <diagram name="Page-1" id="WkcdebotarxMAiZI-FxK">
    <mxGraphModel grid="1" page="1" gridSize="10" guides="1" tooltips="1" connect="1" arrows="1" fold="1" pageScale="1" pageWidth="827" pageHeight="1169" math="0" shadow="0">
      <root>
        <mxCell id="0" />
        <mxCell id="1" parent="0" />
        <mxCell id="vrVgdUvpl9SbaMRbC_Vv-108" style="edgeStyle=orthogonalEdgeStyle;rounded=0;orthogonalLoop=1;jettySize=auto;html=1;exitX=0.5;exitY=0;exitDx=0;exitDy=0;exitPerimeter=0;" edge="1" parent="1" source="vrVgdUvpl9SbaMRbC_Vv-1" target="vrVgdUvpl9SbaMRbC_Vv-107">
          <mxGeometry relative="1" as="geometry" />
        </mxCell>
        <mxCell id="vrVgdUvpl9SbaMRbC_Vv-1" value="" style="shape=mxgraph.cisco.security.firewall;sketch=0;html=1;pointerEvents=1;dashed=0;fillColor=#036897;strokeColor=#ffffff;strokeWidth=2;verticalLabelPosition=bottom;verticalAlign=top;align=center;outlineConnect=0;" vertex="1" parent="1">
          <mxGeometry x="370" y="160" width="29" height="67" as="geometry" />
        </mxCell>
        <mxCell id="vrVgdUvpl9SbaMRbC_Vv-2" value="" style="shape=mxgraph.cisco.switches.workgroup_switch;sketch=0;html=1;pointerEvents=1;dashed=0;fillColor=#036897;strokeColor=#ffffff;strokeWidth=2;verticalLabelPosition=bottom;verticalAlign=top;align=center;outlineConnect=0;" vertex="1" parent="1">
          <mxGeometry x="130" y="190" width="101" height="50" as="geometry" />
        </mxCell>
        <mxCell id="vrVgdUvpl9SbaMRbC_Vv-4" style="edgeStyle=orthogonalEdgeStyle;rounded=0;orthogonalLoop=1;jettySize=auto;html=1;exitX=1;exitY=0.5;exitDx=0;exitDy=0;exitPerimeter=0;" edge="1" parent="1" source="vrVgdUvpl9SbaMRbC_Vv-3" target="vrVgdUvpl9SbaMRbC_Vv-2">
          <mxGeometry relative="1" as="geometry" />
        </mxCell>
        <mxCell id="vrVgdUvpl9SbaMRbC_Vv-3" value="" style="shape=mxgraph.cisco.misc.access_point;sketch=0;html=1;pointerEvents=1;dashed=0;fillColor=#036897;strokeColor=#ffffff;strokeWidth=2;verticalLabelPosition=bottom;verticalAlign=top;align=center;outlineConnect=0;" vertex="1" parent="1">
          <mxGeometry x="-10" y="206" width="75" height="34" as="geometry" />
        </mxCell>
        <mxCell id="vrVgdUvpl9SbaMRbC_Vv-5" value="" style="shape=mxgraph.cisco.servers.file_server;sketch=0;html=1;pointerEvents=1;dashed=0;fillColor=#036897;strokeColor=#ffffff;strokeWidth=2;verticalLabelPosition=bottom;verticalAlign=top;align=center;outlineConnect=0;" vertex="1" parent="1">
          <mxGeometry x="6" y="60" width="43" height="58" as="geometry" />
        </mxCell>
        <mxCell id="vrVgdUvpl9SbaMRbC_Vv-6" style="edgeStyle=orthogonalEdgeStyle;rounded=0;orthogonalLoop=1;jettySize=auto;html=1;exitX=0.89;exitY=0.9;exitDx=0;exitDy=0;exitPerimeter=0;entryX=0;entryY=0.5;entryDx=0;entryDy=0;entryPerimeter=0;" edge="1" parent="1" source="vrVgdUvpl9SbaMRbC_Vv-5" target="vrVgdUvpl9SbaMRbC_Vv-2">
          <mxGeometry relative="1" as="geometry" />
        </mxCell>
        <mxCell id="vrVgdUvpl9SbaMRbC_Vv-8" style="edgeStyle=orthogonalEdgeStyle;rounded=0;orthogonalLoop=1;jettySize=auto;html=1;exitX=0.5;exitY=1;exitDx=0;exitDy=0;exitPerimeter=0;" edge="1" parent="1" source="vrVgdUvpl9SbaMRbC_Vv-7" target="vrVgdUvpl9SbaMRbC_Vv-2">
          <mxGeometry relative="1" as="geometry">
            <Array as="points">
              <mxPoint x="181" y="112" />
            </Array>
          </mxGeometry>
        </mxCell>
        <mxCell id="vrVgdUvpl9SbaMRbC_Vv-7" value="" style="shape=mxgraph.cisco.servers.fileserver;sketch=0;html=1;pointerEvents=1;dashed=0;fillColor=#036897;strokeColor=#ffffff;strokeWidth=2;verticalLabelPosition=bottom;verticalAlign=top;align=center;outlineConnect=0;" vertex="1" parent="1">
          <mxGeometry x="130" y="50" width="43" height="62" as="geometry" />
        </mxCell>
        <mxCell id="vrVgdUvpl9SbaMRbC_Vv-47" style="edgeStyle=orthogonalEdgeStyle;rounded=0;orthogonalLoop=1;jettySize=auto;html=1;" edge="1" parent="1" source="vrVgdUvpl9SbaMRbC_Vv-9" target="vrVgdUvpl9SbaMRbC_Vv-1">
          <mxGeometry relative="1" as="geometry">
            <mxPoint x="550" y="270" as="sourcePoint" />
          </mxGeometry>
        </mxCell>
        <mxCell id="vrVgdUvpl9SbaMRbC_Vv-9" value="" style="shape=mxgraph.cisco.switches.workgroup_switch;sketch=0;html=1;pointerEvents=1;dashed=0;fillColor=#036897;strokeColor=#ffffff;strokeWidth=2;verticalLabelPosition=bottom;verticalAlign=top;align=center;outlineConnect=0;" vertex="1" parent="1">
          <mxGeometry x="334" y="370" width="101" height="50" as="geometry" />
        </mxCell>
        <mxCell id="vrVgdUvpl9SbaMRbC_Vv-10" style="edgeStyle=orthogonalEdgeStyle;rounded=0;orthogonalLoop=1;jettySize=auto;html=1;exitX=0.87;exitY=0.74;exitDx=0;exitDy=0;exitPerimeter=0;entryX=0;entryY=0.5;entryDx=0;entryDy=0;entryPerimeter=0;" edge="1" parent="1" source="vrVgdUvpl9SbaMRbC_Vv-2" target="vrVgdUvpl9SbaMRbC_Vv-9">
          <mxGeometry relative="1" as="geometry" />
        </mxCell>
        <mxCell id="vrVgdUvpl9SbaMRbC_Vv-20" value="" style="shape=mxgraph.cisco.switches.workgroup_switch;sketch=0;html=1;pointerEvents=1;dashed=0;fillColor=#036897;strokeColor=#ffffff;strokeWidth=2;verticalLabelPosition=bottom;verticalAlign=top;align=center;outlineConnect=0;" vertex="1" parent="1">
          <mxGeometry x="130" y="380" width="101" height="50" as="geometry" />
        </mxCell>
        <mxCell id="vrVgdUvpl9SbaMRbC_Vv-21" style="edgeStyle=orthogonalEdgeStyle;rounded=0;orthogonalLoop=1;jettySize=auto;html=1;exitX=1;exitY=0.5;exitDx=0;exitDy=0;exitPerimeter=0;" edge="1" parent="1" source="vrVgdUvpl9SbaMRbC_Vv-22" target="vrVgdUvpl9SbaMRbC_Vv-20">
          <mxGeometry relative="1" as="geometry" />
        </mxCell>
        <mxCell id="vrVgdUvpl9SbaMRbC_Vv-22" value="" style="shape=mxgraph.cisco.misc.access_point;sketch=0;html=1;pointerEvents=1;dashed=0;fillColor=#036897;strokeColor=#ffffff;strokeWidth=2;verticalLabelPosition=bottom;verticalAlign=top;align=center;outlineConnect=0;" vertex="1" parent="1">
          <mxGeometry x="-10" y="396" width="75" height="34" as="geometry" />
        </mxCell>
        <mxCell id="vrVgdUvpl9SbaMRbC_Vv-23" value="" style="shape=mxgraph.cisco.switches.workgroup_switch;sketch=0;html=1;pointerEvents=1;dashed=0;fillColor=#036897;strokeColor=#ffffff;strokeWidth=2;verticalLabelPosition=bottom;verticalAlign=top;align=center;outlineConnect=0;" vertex="1" parent="1">
          <mxGeometry x="146" y="520" width="101" height="50" as="geometry" />
        </mxCell>
        <mxCell id="vrVgdUvpl9SbaMRbC_Vv-24" style="edgeStyle=orthogonalEdgeStyle;rounded=0;orthogonalLoop=1;jettySize=auto;html=1;exitX=1;exitY=0.5;exitDx=0;exitDy=0;exitPerimeter=0;" edge="1" parent="1" source="vrVgdUvpl9SbaMRbC_Vv-25" target="vrVgdUvpl9SbaMRbC_Vv-23">
          <mxGeometry relative="1" as="geometry" />
        </mxCell>
        <mxCell id="vrVgdUvpl9SbaMRbC_Vv-25" value="" style="shape=mxgraph.cisco.misc.access_point;sketch=0;html=1;pointerEvents=1;dashed=0;fillColor=#036897;strokeColor=#ffffff;strokeWidth=2;verticalLabelPosition=bottom;verticalAlign=top;align=center;outlineConnect=0;" vertex="1" parent="1">
          <mxGeometry x="6" y="536" width="75" height="34" as="geometry" />
        </mxCell>
        <mxCell id="vrVgdUvpl9SbaMRbC_Vv-26" value="" style="shape=mxgraph.cisco.switches.workgroup_switch;sketch=0;html=1;pointerEvents=1;dashed=0;fillColor=#036897;strokeColor=#ffffff;strokeWidth=2;verticalLabelPosition=bottom;verticalAlign=top;align=center;outlineConnect=0;" vertex="1" parent="1">
          <mxGeometry x="171" y="650" width="101" height="50" as="geometry" />
        </mxCell>
        <mxCell id="vrVgdUvpl9SbaMRbC_Vv-27" style="edgeStyle=orthogonalEdgeStyle;rounded=0;orthogonalLoop=1;jettySize=auto;html=1;exitX=1;exitY=0.5;exitDx=0;exitDy=0;exitPerimeter=0;" edge="1" parent="1" source="vrVgdUvpl9SbaMRbC_Vv-28" target="vrVgdUvpl9SbaMRbC_Vv-26">
          <mxGeometry relative="1" as="geometry" />
        </mxCell>
        <mxCell id="vrVgdUvpl9SbaMRbC_Vv-28" value="" style="shape=mxgraph.cisco.misc.access_point;sketch=0;html=1;pointerEvents=1;dashed=0;fillColor=#036897;strokeColor=#ffffff;strokeWidth=2;verticalLabelPosition=bottom;verticalAlign=top;align=center;outlineConnect=0;" vertex="1" parent="1">
          <mxGeometry x="31" y="696" width="75" height="34" as="geometry" />
        </mxCell>
        <mxCell id="vrVgdUvpl9SbaMRbC_Vv-29" style="edgeStyle=orthogonalEdgeStyle;rounded=0;orthogonalLoop=1;jettySize=auto;html=1;exitX=0.98;exitY=0.5;exitDx=0;exitDy=0;exitPerimeter=0;entryX=0;entryY=0.5;entryDx=0;entryDy=0;entryPerimeter=0;" edge="1" parent="1" source="vrVgdUvpl9SbaMRbC_Vv-20" target="vrVgdUvpl9SbaMRbC_Vv-9">
          <mxGeometry relative="1" as="geometry" />
        </mxCell>
        <mxCell id="vrVgdUvpl9SbaMRbC_Vv-30" style="edgeStyle=orthogonalEdgeStyle;rounded=0;orthogonalLoop=1;jettySize=auto;html=1;exitX=0.98;exitY=0.5;exitDx=0;exitDy=0;exitPerimeter=0;entryX=0;entryY=0.5;entryDx=0;entryDy=0;entryPerimeter=0;" edge="1" parent="1" source="vrVgdUvpl9SbaMRbC_Vv-23" target="vrVgdUvpl9SbaMRbC_Vv-9">
          <mxGeometry relative="1" as="geometry" />
        </mxCell>
        <mxCell id="vrVgdUvpl9SbaMRbC_Vv-31" style="edgeStyle=orthogonalEdgeStyle;rounded=0;orthogonalLoop=1;jettySize=auto;html=1;exitX=0.98;exitY=0.5;exitDx=0;exitDy=0;exitPerimeter=0;entryX=0;entryY=0.5;entryDx=0;entryDy=0;entryPerimeter=0;" edge="1" parent="1" source="vrVgdUvpl9SbaMRbC_Vv-26" target="vrVgdUvpl9SbaMRbC_Vv-9">
          <mxGeometry relative="1" as="geometry" />
        </mxCell>
        <mxCell id="vrVgdUvpl9SbaMRbC_Vv-39" style="edgeStyle=orthogonalEdgeStyle;rounded=0;orthogonalLoop=1;jettySize=auto;html=1;exitX=0;exitY=0.5;exitDx=0;exitDy=0;exitPerimeter=0;" edge="1" parent="1" source="vrVgdUvpl9SbaMRbC_Vv-32" target="vrVgdUvpl9SbaMRbC_Vv-9">
          <mxGeometry relative="1" as="geometry" />
        </mxCell>
        <mxCell id="vrVgdUvpl9SbaMRbC_Vv-32" value="" style="shape=mxgraph.cisco.switches.workgroup_switch;sketch=0;html=1;pointerEvents=1;dashed=0;fillColor=#036897;strokeColor=#ffffff;strokeWidth=2;verticalLabelPosition=bottom;verticalAlign=top;align=center;outlineConnect=0;" vertex="1" parent="1">
          <mxGeometry x="540" y="584" width="101" height="50" as="geometry" />
        </mxCell>
        <mxCell id="vrVgdUvpl9SbaMRbC_Vv-33" style="edgeStyle=orthogonalEdgeStyle;rounded=0;orthogonalLoop=1;jettySize=auto;html=1;exitX=0;exitY=0.5;exitDx=0;exitDy=0;exitPerimeter=0;" edge="1" parent="1" source="vrVgdUvpl9SbaMRbC_Vv-34" target="vrVgdUvpl9SbaMRbC_Vv-32">
          <mxGeometry relative="1" as="geometry" />
        </mxCell>
        <mxCell id="vrVgdUvpl9SbaMRbC_Vv-34" value="" style="shape=mxgraph.cisco.misc.access_point;sketch=0;html=1;pointerEvents=1;dashed=0;fillColor=#036897;strokeColor=#ffffff;strokeWidth=2;verticalLabelPosition=bottom;verticalAlign=top;align=center;outlineConnect=0;" vertex="1" parent="1">
          <mxGeometry x="710" y="616" width="75" height="34" as="geometry" />
        </mxCell>
        <mxCell id="vrVgdUvpl9SbaMRbC_Vv-35" value="" style="shape=mxgraph.cisco.switches.workgroup_switch;sketch=0;html=1;pointerEvents=1;dashed=0;fillColor=#036897;strokeColor=#ffffff;strokeWidth=2;verticalLabelPosition=bottom;verticalAlign=top;align=center;outlineConnect=0;" vertex="1" parent="1">
          <mxGeometry x="556" y="430" width="101" height="50" as="geometry" />
        </mxCell>
        <mxCell id="vrVgdUvpl9SbaMRbC_Vv-36" style="edgeStyle=orthogonalEdgeStyle;rounded=0;orthogonalLoop=1;jettySize=auto;html=1;exitX=0;exitY=0.5;exitDx=0;exitDy=0;exitPerimeter=0;" edge="1" parent="1" source="vrVgdUvpl9SbaMRbC_Vv-37" target="vrVgdUvpl9SbaMRbC_Vv-35">
          <mxGeometry relative="1" as="geometry" />
        </mxCell>
        <mxCell id="vrVgdUvpl9SbaMRbC_Vv-37" value="" style="shape=mxgraph.cisco.misc.access_point;sketch=0;html=1;pointerEvents=1;dashed=0;fillColor=#036897;strokeColor=#ffffff;strokeWidth=2;verticalLabelPosition=bottom;verticalAlign=top;align=center;outlineConnect=0;" vertex="1" parent="1">
          <mxGeometry x="730" y="438" width="75" height="34" as="geometry" />
        </mxCell>
        <mxCell id="vrVgdUvpl9SbaMRbC_Vv-38" style="edgeStyle=orthogonalEdgeStyle;rounded=0;orthogonalLoop=1;jettySize=auto;html=1;exitX=0;exitY=0.5;exitDx=0;exitDy=0;exitPerimeter=0;" edge="1" parent="1" source="vrVgdUvpl9SbaMRbC_Vv-35" target="vrVgdUvpl9SbaMRbC_Vv-9">
          <mxGeometry relative="1" as="geometry" />
        </mxCell>
        <mxCell id="vrVgdUvpl9SbaMRbC_Vv-41" style="edgeStyle=orthogonalEdgeStyle;rounded=0;orthogonalLoop=1;jettySize=auto;html=1;exitX=0.5;exitY=0;exitDx=0;exitDy=0;exitPerimeter=0;" edge="1" parent="1" source="vrVgdUvpl9SbaMRbC_Vv-40" target="vrVgdUvpl9SbaMRbC_Vv-9">
          <mxGeometry relative="1" as="geometry" />
        </mxCell>
        <mxCell id="vrVgdUvpl9SbaMRbC_Vv-40" value="" style="shape=mxgraph.cisco.servers.fileserver;sketch=0;html=1;pointerEvents=1;dashed=0;fillColor=#036897;strokeColor=#ffffff;strokeWidth=2;verticalLabelPosition=bottom;verticalAlign=top;align=center;outlineConnect=0;" vertex="1" parent="1">
          <mxGeometry x="363" y="652" width="43" height="62" as="geometry" />
        </mxCell>
        <mxCell id="vrVgdUvpl9SbaMRbC_Vv-43" value="Planta 3" style="text;html=1;align=center;verticalAlign=middle;whiteSpace=wrap;rounded=0;" vertex="1" parent="1">
          <mxGeometry x="150.5" y="240" width="60" height="30" as="geometry" />
        </mxCell>
        <mxCell id="vrVgdUvpl9SbaMRbC_Vv-44" value="DHCP" style="text;html=1;align=center;verticalAlign=middle;whiteSpace=wrap;rounded=0;" vertex="1" parent="1">
          <mxGeometry x="354.5" y="714" width="60" height="30" as="geometry" />
        </mxCell>
        <mxCell id="vrVgdUvpl9SbaMRbC_Vv-45" value="Streaming" style="text;html=1;align=center;verticalAlign=middle;whiteSpace=wrap;rounded=0;" vertex="1" parent="1">
          <mxGeometry x="121.5" y="112" width="60" height="30" as="geometry" />
        </mxCell>
        <mxCell id="vrVgdUvpl9SbaMRbC_Vv-46" value="Archivos" style="text;html=1;align=center;verticalAlign=middle;whiteSpace=wrap;rounded=0;" vertex="1" parent="1">
          <mxGeometry x="-7" y="112" width="60" height="30" as="geometry" />
        </mxCell>
        <mxCell id="vrVgdUvpl9SbaMRbC_Vv-50" value="Recepción" style="text;html=1;align=center;verticalAlign=middle;whiteSpace=wrap;rounded=0;" vertex="1" parent="1">
          <mxGeometry x="191.5" y="700" width="60" height="30" as="geometry" />
        </mxCell>
        <mxCell id="vrVgdUvpl9SbaMRbC_Vv-51" value="Planta 1" style="text;html=1;align=center;verticalAlign=middle;whiteSpace=wrap;rounded=0;" vertex="1" parent="1">
          <mxGeometry x="166.5" y="570" width="60" height="30" as="geometry" />
        </mxCell>
        <mxCell id="vrVgdUvpl9SbaMRbC_Vv-52" value="Planta 2" style="text;html=1;align=center;verticalAlign=middle;whiteSpace=wrap;rounded=0;" vertex="1" parent="1">
          <mxGeometry x="150.5" y="430" width="60" height="30" as="geometry" />
        </mxCell>
        <mxCell id="vrVgdUvpl9SbaMRbC_Vv-54" style="edgeStyle=orthogonalEdgeStyle;rounded=0;orthogonalLoop=1;jettySize=auto;html=1;" edge="1" parent="1" source="vrVgdUvpl9SbaMRbC_Vv-53" target="vrVgdUvpl9SbaMRbC_Vv-26">
          <mxGeometry relative="1" as="geometry" />
        </mxCell>
        <mxCell id="vrVgdUvpl9SbaMRbC_Vv-53" value="" style="shape=mxgraph.cisco.modems_and_phones.ip_phone;sketch=0;html=1;pointerEvents=1;dashed=0;fillColor=#036897;strokeColor=#ffffff;strokeWidth=2;verticalLabelPosition=bottom;verticalAlign=top;align=center;outlineConnect=0;" vertex="1" parent="1">
          <mxGeometry x="16" y="616" width="90" height="50" as="geometry" />
        </mxCell>
        <mxCell id="vrVgdUvpl9SbaMRbC_Vv-55" value="" style="shape=mxgraph.cisco.computers_and_peripherals.laptop;sketch=0;html=1;pointerEvents=1;dashed=0;fillColor=#036897;strokeColor=#ffffff;strokeWidth=2;verticalLabelPosition=bottom;verticalAlign=top;align=center;outlineConnect=0;" vertex="1" parent="1">
          <mxGeometry x="-90" y="810" width="90" height="61" as="geometry" />
        </mxCell>
        <mxCell id="vrVgdUvpl9SbaMRbC_Vv-56" value="" style="endArrow=none;dashed=1;html=1;dashPattern=1 3;strokeWidth=2;rounded=0;" edge="1" parent="1" source="vrVgdUvpl9SbaMRbC_Vv-55" target="vrVgdUvpl9SbaMRbC_Vv-28">
          <mxGeometry width="50" height="50" relative="1" as="geometry">
            <mxPoint x="10" y="800" as="sourcePoint" />
            <mxPoint x="60" y="750" as="targetPoint" />
          </mxGeometry>
        </mxCell>
        <mxCell id="vrVgdUvpl9SbaMRbC_Vv-63" value="" style="endArrow=none;dashed=1;html=1;dashPattern=1 3;strokeWidth=2;rounded=0;" edge="1" parent="1" source="vrVgdUvpl9SbaMRbC_Vv-64" target="vrVgdUvpl9SbaMRbC_Vv-25">
          <mxGeometry width="50" height="50" relative="1" as="geometry">
            <mxPoint x="-80" y="660" as="sourcePoint" />
            <mxPoint x="-151" y="530" as="targetPoint" />
          </mxGeometry>
        </mxCell>
        <mxCell id="vrVgdUvpl9SbaMRbC_Vv-64" value="" style="shape=mxgraph.cisco.computers_and_peripherals.laptop;sketch=0;html=1;pointerEvents=1;dashed=0;fillColor=#036897;strokeColor=#ffffff;strokeWidth=2;verticalLabelPosition=bottom;verticalAlign=top;align=center;outlineConnect=0;" vertex="1" parent="1">
          <mxGeometry x="-165" y="600" width="90" height="61" as="geometry" />
        </mxCell>
        <mxCell id="vrVgdUvpl9SbaMRbC_Vv-77" value="" style="endArrow=none;dashed=1;html=1;dashPattern=1 3;strokeWidth=2;rounded=0;" edge="1" parent="1" source="vrVgdUvpl9SbaMRbC_Vv-78" target="vrVgdUvpl9SbaMRbC_Vv-25">
          <mxGeometry width="50" height="50" relative="1" as="geometry">
            <mxPoint x="-66.61" y="569" as="sourcePoint" />
            <mxPoint x="-10.000510948905102" y="487.9999999999999" as="targetPoint" />
          </mxGeometry>
        </mxCell>
        <mxCell id="vrVgdUvpl9SbaMRbC_Vv-78" value="" style="shape=mxgraph.cisco.computers_and_peripherals.laptop;sketch=0;html=1;pointerEvents=1;dashed=0;fillColor=#036897;strokeColor=#ffffff;strokeWidth=2;verticalLabelPosition=bottom;verticalAlign=top;align=center;outlineConnect=0;" vertex="1" parent="1">
          <mxGeometry x="-151.61" y="509" width="90" height="61" as="geometry" />
        </mxCell>
        <mxCell id="vrVgdUvpl9SbaMRbC_Vv-79" value="" style="endArrow=none;dashed=1;html=1;dashPattern=1 3;strokeWidth=2;rounded=0;" edge="1" parent="1" source="vrVgdUvpl9SbaMRbC_Vv-80" target="vrVgdUvpl9SbaMRbC_Vv-22">
          <mxGeometry width="50" height="50" relative="1" as="geometry">
            <mxPoint x="-66.61000000000001" y="490" as="sourcePoint" />
            <mxPoint x="-268.49916256157655" y="-30.000000000000114" as="targetPoint" />
          </mxGeometry>
        </mxCell>
        <mxCell id="vrVgdUvpl9SbaMRbC_Vv-80" value="" style="shape=mxgraph.cisco.computers_and_peripherals.laptop;sketch=0;html=1;pointerEvents=1;dashed=0;fillColor=#036897;strokeColor=#ffffff;strokeWidth=2;verticalLabelPosition=bottom;verticalAlign=top;align=center;outlineConnect=0;" vertex="1" parent="1">
          <mxGeometry x="-151.61" y="430" width="90" height="61" as="geometry" />
        </mxCell>
        <mxCell id="vrVgdUvpl9SbaMRbC_Vv-81" value="" style="endArrow=none;dashed=1;html=1;dashPattern=1 3;strokeWidth=2;rounded=0;" edge="1" parent="1" source="vrVgdUvpl9SbaMRbC_Vv-82" target="vrVgdUvpl9SbaMRbC_Vv-22">
          <mxGeometry width="50" height="50" relative="1" as="geometry">
            <mxPoint x="-65.00000000000001" y="390" as="sourcePoint" />
            <mxPoint x="17.92401360544196" y="416.9999999999999" as="targetPoint" />
          </mxGeometry>
        </mxCell>
        <mxCell id="vrVgdUvpl9SbaMRbC_Vv-82" value="" style="shape=mxgraph.cisco.computers_and_peripherals.laptop;sketch=0;html=1;pointerEvents=1;dashed=0;fillColor=#036897;strokeColor=#ffffff;strokeWidth=2;verticalLabelPosition=bottom;verticalAlign=top;align=center;outlineConnect=0;" vertex="1" parent="1">
          <mxGeometry x="-150.00000000000003" y="330" width="90" height="61" as="geometry" />
        </mxCell>
        <mxCell id="vrVgdUvpl9SbaMRbC_Vv-84" value="" style="endArrow=none;dashed=1;html=1;dashPattern=1 3;strokeWidth=2;rounded=0;" edge="1" parent="1" source="vrVgdUvpl9SbaMRbC_Vv-85" target="vrVgdUvpl9SbaMRbC_Vv-3">
          <mxGeometry width="50" height="50" relative="1" as="geometry">
            <mxPoint x="-105.80000000000001" y="239" as="sourcePoint" />
            <mxPoint x="-49.19" y="175" as="targetPoint" />
          </mxGeometry>
        </mxCell>
        <mxCell id="vrVgdUvpl9SbaMRbC_Vv-85" value="" style="shape=mxgraph.cisco.computers_and_peripherals.laptop;sketch=0;html=1;pointerEvents=1;dashed=0;fillColor=#036897;strokeColor=#ffffff;strokeWidth=2;verticalLabelPosition=bottom;verticalAlign=top;align=center;outlineConnect=0;" vertex="1" parent="1">
          <mxGeometry x="-160" y="120" width="90" height="61" as="geometry" />
        </mxCell>
        <mxCell id="vrVgdUvpl9SbaMRbC_Vv-86" value="" style="endArrow=none;dashed=1;html=1;dashPattern=1 3;strokeWidth=2;rounded=0;" edge="1" parent="1" source="vrVgdUvpl9SbaMRbC_Vv-87" target="vrVgdUvpl9SbaMRbC_Vv-3">
          <mxGeometry width="50" height="50" relative="1" as="geometry">
            <mxPoint x="-15.800000000000015" y="314" as="sourcePoint" />
            <mxPoint x="40.81" y="250" as="targetPoint" />
          </mxGeometry>
        </mxCell>
        <mxCell id="vrVgdUvpl9SbaMRbC_Vv-87" value="" style="shape=mxgraph.cisco.computers_and_peripherals.laptop;sketch=0;html=1;pointerEvents=1;dashed=0;fillColor=#036897;strokeColor=#ffffff;strokeWidth=2;verticalLabelPosition=bottom;verticalAlign=top;align=center;outlineConnect=0;" vertex="1" parent="1">
          <mxGeometry x="-180" y="220" width="90" height="61" as="geometry" />
        </mxCell>
        <mxCell id="vrVgdUvpl9SbaMRbC_Vv-88" value="" style="shape=mxgraph.cisco.misc.tv;html=1;pointerEvents=1;dashed=0;fillColor=#036897;strokeColor=#ffffff;strokeWidth=2;verticalLabelPosition=bottom;verticalAlign=top;align=center;outlineConnect=0;" vertex="1" parent="1">
          <mxGeometry x="53" y="320" width="53" height="53" as="geometry" />
        </mxCell>
        <mxCell id="vrVgdUvpl9SbaMRbC_Vv-89" value="" style="shape=mxgraph.cisco.misc.tv;html=1;pointerEvents=1;dashed=0;fillColor=#036897;strokeColor=#ffffff;strokeWidth=2;verticalLabelPosition=bottom;verticalAlign=top;align=center;outlineConnect=0;" vertex="1" parent="1">
          <mxGeometry x="77" y="467" width="53" height="53" as="geometry" />
        </mxCell>
        <mxCell id="vrVgdUvpl9SbaMRbC_Vv-90" value="" style="shape=mxgraph.cisco.misc.tv;html=1;pointerEvents=1;dashed=0;fillColor=#036897;strokeColor=#ffffff;strokeWidth=2;verticalLabelPosition=bottom;verticalAlign=top;align=center;outlineConnect=0;" vertex="1" parent="1">
          <mxGeometry x="210.5" y="112" width="53" height="53" as="geometry" />
        </mxCell>
        <mxCell id="vrVgdUvpl9SbaMRbC_Vv-91" value="" style="shape=mxgraph.cisco.computers_and_peripherals.laptop;sketch=0;html=1;pointerEvents=1;dashed=0;fillColor=#036897;strokeColor=#ffffff;strokeWidth=2;verticalLabelPosition=bottom;verticalAlign=top;align=center;outlineConnect=0;" vertex="1" parent="1">
          <mxGeometry x="925" y="578.5" width="90" height="61" as="geometry" />
        </mxCell>
        <mxCell id="vrVgdUvpl9SbaMRbC_Vv-92" value="" style="endArrow=none;dashed=1;html=1;dashPattern=1 3;strokeWidth=2;rounded=0;" edge="1" parent="1" source="vrVgdUvpl9SbaMRbC_Vv-91" target="vrVgdUvpl9SbaMRbC_Vv-34">
          <mxGeometry width="50" height="50" relative="1" as="geometry">
            <mxPoint x="710" y="704" as="sourcePoint" />
            <mxPoint x="753" y="634" as="targetPoint" />
          </mxGeometry>
        </mxCell>
        <mxCell id="vrVgdUvpl9SbaMRbC_Vv-93" value="" style="shape=mxgraph.cisco.computers_and_peripherals.laptop;sketch=0;html=1;pointerEvents=1;dashed=0;fillColor=#036897;strokeColor=#ffffff;strokeWidth=2;verticalLabelPosition=bottom;verticalAlign=top;align=center;outlineConnect=0;" vertex="1" parent="1">
          <mxGeometry x="805" y="696" width="90" height="61" as="geometry" />
        </mxCell>
        <mxCell id="vrVgdUvpl9SbaMRbC_Vv-94" value="" style="endArrow=none;dashed=1;html=1;dashPattern=1 3;strokeWidth=2;rounded=0;" edge="1" parent="1" source="vrVgdUvpl9SbaMRbC_Vv-93" target="vrVgdUvpl9SbaMRbC_Vv-34">
          <mxGeometry width="50" height="50" relative="1" as="geometry">
            <mxPoint x="810" y="706.25" as="sourcePoint" />
            <mxPoint x="841" y="652.25" as="targetPoint" />
          </mxGeometry>
        </mxCell>
        <mxCell id="vrVgdUvpl9SbaMRbC_Vv-95" value="" style="shape=mxgraph.cisco.computers_and_peripherals.laptop;sketch=0;html=1;pointerEvents=1;dashed=0;fillColor=#036897;strokeColor=#ffffff;strokeWidth=2;verticalLabelPosition=bottom;verticalAlign=top;align=center;outlineConnect=0;" vertex="1" parent="1">
          <mxGeometry x="910" y="661" width="90" height="61" as="geometry" />
        </mxCell>
        <mxCell id="vrVgdUvpl9SbaMRbC_Vv-96" value="" style="endArrow=none;dashed=1;html=1;dashPattern=1 3;strokeWidth=2;rounded=0;" edge="1" parent="1" source="vrVgdUvpl9SbaMRbC_Vv-95" target="vrVgdUvpl9SbaMRbC_Vv-34">
          <mxGeometry width="50" height="50" relative="1" as="geometry">
            <mxPoint x="885" y="602.88" as="sourcePoint" />
            <mxPoint x="800" y="607.6246808510638" as="targetPoint" />
          </mxGeometry>
        </mxCell>
        <mxCell id="vrVgdUvpl9SbaMRbC_Vv-97" value="" style="shape=mxgraph.cisco.misc.tv;html=1;pointerEvents=1;dashed=0;fillColor=#036897;strokeColor=#ffffff;strokeWidth=2;verticalLabelPosition=bottom;verticalAlign=top;align=center;outlineConnect=0;" vertex="1" parent="1">
          <mxGeometry x="741" y="547" width="53" height="53" as="geometry" />
        </mxCell>
        <mxCell id="vrVgdUvpl9SbaMRbC_Vv-98" value="" style="shape=mxgraph.cisco.computers_and_peripherals.laptop;sketch=0;html=1;pointerEvents=1;dashed=0;fillColor=#036897;strokeColor=#ffffff;strokeWidth=2;verticalLabelPosition=bottom;verticalAlign=top;align=center;outlineConnect=0;" vertex="1" parent="1">
          <mxGeometry x="872" y="459" width="90" height="61" as="geometry" />
        </mxCell>
        <mxCell id="vrVgdUvpl9SbaMRbC_Vv-99" value="" style="endArrow=none;dashed=1;html=1;dashPattern=1 3;strokeWidth=2;rounded=0;" edge="1" parent="1" source="vrVgdUvpl9SbaMRbC_Vv-98" target="vrVgdUvpl9SbaMRbC_Vv-37">
          <mxGeometry width="50" height="50" relative="1" as="geometry">
            <mxPoint x="900" y="480.5" as="sourcePoint" />
            <mxPoint x="800" y="513.62" as="targetPoint" />
          </mxGeometry>
        </mxCell>
        <mxCell id="vrVgdUvpl9SbaMRbC_Vv-100" value="" style="shape=mxgraph.cisco.computers_and_peripherals.laptop;sketch=0;html=1;pointerEvents=1;dashed=0;fillColor=#036897;strokeColor=#ffffff;strokeWidth=2;verticalLabelPosition=bottom;verticalAlign=top;align=center;outlineConnect=0;" vertex="1" parent="1">
          <mxGeometry x="860" y="312" width="90" height="61" as="geometry" />
        </mxCell>
        <mxCell id="vrVgdUvpl9SbaMRbC_Vv-101" value="" style="endArrow=none;dashed=1;html=1;dashPattern=1 3;strokeWidth=2;rounded=0;" edge="1" parent="1" source="vrVgdUvpl9SbaMRbC_Vv-100" target="vrVgdUvpl9SbaMRbC_Vv-37">
          <mxGeometry width="50" height="50" relative="1" as="geometry">
            <mxPoint x="760" y="518.88" as="sourcePoint" />
            <mxPoint x="761.3396432471786" y="467" as="targetPoint" />
          </mxGeometry>
        </mxCell>
        <mxCell id="vrVgdUvpl9SbaMRbC_Vv-102" value="" style="shape=mxgraph.cisco.computers_and_peripherals.laptop;sketch=0;html=1;pointerEvents=1;dashed=0;fillColor=#036897;strokeColor=#ffffff;strokeWidth=2;verticalLabelPosition=bottom;verticalAlign=top;align=center;outlineConnect=0;" vertex="1" parent="1">
          <mxGeometry x="872" y="379.76" width="90" height="61" as="geometry" />
        </mxCell>
        <mxCell id="vrVgdUvpl9SbaMRbC_Vv-103" value="" style="endArrow=none;dashed=1;html=1;dashPattern=1 3;strokeWidth=2;rounded=0;" edge="1" parent="1" source="vrVgdUvpl9SbaMRbC_Vv-102" target="vrVgdUvpl9SbaMRbC_Vv-37">
          <mxGeometry width="50" height="50" relative="1" as="geometry">
            <mxPoint x="922" y="369.26" as="sourcePoint" />
            <mxPoint x="800" y="446.23087378640776" as="targetPoint" />
          </mxGeometry>
        </mxCell>
        <mxCell id="vrVgdUvpl9SbaMRbC_Vv-104" value="" style="shape=mxgraph.cisco.misc.tv;html=1;pointerEvents=1;dashed=0;fillColor=#036897;strokeColor=#ffffff;strokeWidth=2;verticalLabelPosition=bottom;verticalAlign=top;align=center;outlineConnect=0;" vertex="1" parent="1">
          <mxGeometry x="741" y="373" width="53" height="53" as="geometry" />
        </mxCell>
        <mxCell id="vrVgdUvpl9SbaMRbC_Vv-105" value="Laboratorio" style="text;html=1;align=center;verticalAlign=middle;whiteSpace=wrap;rounded=0;" vertex="1" parent="1">
          <mxGeometry x="717.5" y="650" width="60" height="30" as="geometry" />
        </mxCell>
        <mxCell id="vrVgdUvpl9SbaMRbC_Vv-106" value="Biblioteca" style="text;html=1;align=center;verticalAlign=middle;whiteSpace=wrap;rounded=0;" vertex="1" parent="1">
          <mxGeometry x="737.5" y="467" width="60" height="30" as="geometry" />
        </mxCell>
        <mxCell id="vrVgdUvpl9SbaMRbC_Vv-112" style="edgeStyle=orthogonalEdgeStyle;rounded=0;orthogonalLoop=1;jettySize=auto;html=1;exitX=0.5;exitY=0;exitDx=0;exitDy=0;exitPerimeter=0;" edge="1" parent="1" source="vrVgdUvpl9SbaMRbC_Vv-107" target="vrVgdUvpl9SbaMRbC_Vv-111">
          <mxGeometry relative="1" as="geometry">
            <Array as="points">
              <mxPoint x="385" y="-90" />
              <mxPoint x="470" y="-90" />
            </Array>
          </mxGeometry>
        </mxCell>
        <mxCell id="vrVgdUvpl9SbaMRbC_Vv-107" value="" style="shape=mxgraph.cisco.routers.router;sketch=0;html=1;pointerEvents=1;dashed=0;fillColor=#036897;strokeColor=#ffffff;strokeWidth=2;verticalLabelPosition=bottom;verticalAlign=top;align=center;outlineConnect=0;" vertex="1" parent="1">
          <mxGeometry x="345.5" width="78" height="53" as="geometry" />
        </mxCell>
        <mxCell id="vrVgdUvpl9SbaMRbC_Vv-115" style="edgeStyle=orthogonalEdgeStyle;rounded=0;orthogonalLoop=1;jettySize=auto;html=1;exitX=1;exitY=0.5;exitDx=0;exitDy=0;exitPerimeter=0;" edge="1" parent="1" source="vrVgdUvpl9SbaMRbC_Vv-109" target="vrVgdUvpl9SbaMRbC_Vv-107">
          <mxGeometry relative="1" as="geometry" />
        </mxCell>
        <mxCell id="vrVgdUvpl9SbaMRbC_Vv-109" value="" style="shape=mxgraph.cisco.servers.fileserver;sketch=0;html=1;pointerEvents=1;dashed=0;fillColor=#036897;strokeColor=#ffffff;strokeWidth=2;verticalLabelPosition=bottom;verticalAlign=top;align=center;outlineConnect=0;" vertex="1" parent="1">
          <mxGeometry x="240" y="-12" width="43" height="62" as="geometry" />
        </mxCell>
        <mxCell id="vrVgdUvpl9SbaMRbC_Vv-116" style="edgeStyle=orthogonalEdgeStyle;rounded=0;orthogonalLoop=1;jettySize=auto;html=1;exitX=0.5;exitY=1;exitDx=0;exitDy=0;exitPerimeter=0;" edge="1" parent="1" source="vrVgdUvpl9SbaMRbC_Vv-110" target="vrVgdUvpl9SbaMRbC_Vv-107">
          <mxGeometry relative="1" as="geometry">
            <Array as="points">
              <mxPoint x="342" y="-90" />
              <mxPoint x="385" y="-90" />
            </Array>
          </mxGeometry>
        </mxCell>
        <mxCell id="vrVgdUvpl9SbaMRbC_Vv-110" value="" style="shape=mxgraph.cisco.servers.fileserver;sketch=0;html=1;pointerEvents=1;dashed=0;fillColor=#036897;strokeColor=#ffffff;strokeWidth=2;verticalLabelPosition=bottom;verticalAlign=top;align=center;outlineConnect=0;" vertex="1" parent="1">
          <mxGeometry x="320" y="-130" width="43" height="62" as="geometry" />
        </mxCell>
        <mxCell id="vrVgdUvpl9SbaMRbC_Vv-111" value="" style="shape=mxgraph.cisco.storage.cloud;html=1;pointerEvents=1;dashed=0;fillColor=#036897;strokeColor=#ffffff;strokeWidth=2;verticalLabelPosition=bottom;verticalAlign=top;align=center;outlineConnect=0;" vertex="1" parent="1">
          <mxGeometry x="371.5" y="-260" width="186" height="106" as="geometry" />
        </mxCell>
        <mxCell id="vrVgdUvpl9SbaMRbC_Vv-113" value="VPN" style="text;html=1;align=center;verticalAlign=middle;whiteSpace=wrap;rounded=0;" vertex="1" parent="1">
          <mxGeometry x="226.5" y="50" width="60" height="30" as="geometry" />
        </mxCell>
        <mxCell id="vrVgdUvpl9SbaMRbC_Vv-114" value="Servicios públicos" style="text;html=1;align=center;verticalAlign=middle;whiteSpace=wrap;rounded=0;" vertex="1" parent="1">
          <mxGeometry x="311.5" y="-68" width="60" height="30" as="geometry" />
        </mxCell>
        <mxCell id="vrVgdUvpl9SbaMRbC_Vv-117" value="" style="shape=mxgraph.cisco.routers.router;sketch=0;html=1;pointerEvents=1;dashed=0;fillColor=#036897;strokeColor=#ffffff;strokeWidth=2;verticalLabelPosition=bottom;verticalAlign=top;align=center;outlineConnect=0;" vertex="1" parent="1">
          <mxGeometry x="749" width="78" height="53" as="geometry" />
        </mxCell>
        <mxCell id="vrVgdUvpl9SbaMRbC_Vv-118" value="" style="endArrow=none;dashed=1;html=1;rounded=0;" edge="1" parent="1" source="vrVgdUvpl9SbaMRbC_Vv-107" target="vrVgdUvpl9SbaMRbC_Vv-117">
          <mxGeometry width="50" height="50" relative="1" as="geometry">
            <mxPoint x="530" y="50" as="sourcePoint" />
            <mxPoint x="580" as="targetPoint" />
          </mxGeometry>
        </mxCell>
        <mxCell id="vrVgdUvpl9SbaMRbC_Vv-119" value="" style="shape=mxgraph.cisco.switches.workgroup_switch;sketch=0;html=1;pointerEvents=1;dashed=0;fillColor=#036897;strokeColor=#ffffff;strokeWidth=2;verticalLabelPosition=bottom;verticalAlign=top;align=center;outlineConnect=0;" vertex="1" parent="1">
          <mxGeometry x="737.5" y="140" width="101" height="50" as="geometry" />
        </mxCell>
        <mxCell id="vrVgdUvpl9SbaMRbC_Vv-120" value="" style="endArrow=none;html=1;rounded=0;" edge="1" parent="1" source="vrVgdUvpl9SbaMRbC_Vv-119" target="vrVgdUvpl9SbaMRbC_Vv-117">
          <mxGeometry width="50" height="50" relative="1" as="geometry">
            <mxPoint x="690" y="150" as="sourcePoint" />
            <mxPoint x="740" y="100" as="targetPoint" />
          </mxGeometry>
        </mxCell>
        <mxCell id="vrVgdUvpl9SbaMRbC_Vv-121" value="" style="shape=mxgraph.cisco.computers_and_peripherals.pc;sketch=0;html=1;pointerEvents=1;dashed=0;fillColor=#036897;strokeColor=#ffffff;strokeWidth=2;verticalLabelPosition=bottom;verticalAlign=top;align=center;outlineConnect=0;" vertex="1" parent="1">
          <mxGeometry x="937" y="130" width="78" height="70" as="geometry" />
        </mxCell>
        <mxCell id="vrVgdUvpl9SbaMRbC_Vv-122" value="" style="endArrow=none;html=1;rounded=0;" edge="1" parent="1" source="vrVgdUvpl9SbaMRbC_Vv-119" target="vrVgdUvpl9SbaMRbC_Vv-121">
          <mxGeometry width="50" height="50" relative="1" as="geometry">
            <mxPoint x="798" y="150" as="sourcePoint" />
            <mxPoint x="798" y="63" as="targetPoint" />
          </mxGeometry>
        </mxCell>
      </root>
    </mxGraphModel>
  </diagram>
</mxfile>
